<svg width="888" height="1798" viewBox="0 0 888 1798" fill="none" xmlns="http://www.w3.org/2000/svg">
	<path d="M668 245L885.104 309.354L313 431L119 346L668 245Z" fill="#D9D9D9"/>
	<path d="M117.74 346L743 490.5L795 642.5L117.74 479L117.74 346Z" fill="#D9D9D9"/>
	<path d="M745.526 505.561L791.733 642.932L355.733 963.932L395.733 761.932L745.526 505.561Z" fill="#D9D9D9"/>
	<path d="M123.346 0L885 188V309L123.346 117V0Z" fill="#D9D9D9"/>
	<path d="M123.346 0L885 188V309L123.346 117V0Z" fill="#D9D9D9"/>
	<path d="M460.799 824L510.799 1093L369.799 1026L357 957.25L460.799 824Z" fill="#D9D9D9"/>
	<path d="M368 1025L757 1181L738 1293L555 1215L368 1025Z" fill="#D9D9D9"/>
	<path d="M755.147 1188.5L743 1316L2 1569.5L48.5 1429.5L755.147 1188.5Z" fill="#D9D9D9"/>
	<path d="M48.5273 1435L888 1518.11L718.905 1633L0 1570.33L48.5273 1435Z" fill="#D9D9D9"/>
	<path d="M679.5 1521.5H884.5L598.5 1797.5H388L679.5 1521.5Z" fill="#D9D9D9"/>
</svg>
